<?xml version="1.0" encoding="utf-8"?>
<!-- Generator: Adobe Illustrator 21.0.0, SVG Export Plug-In . SVG Version: 6.00 Build 0)  -->
<svg version="1.1" id="Capa_1" xmlns="http://www.w3.org/2000/svg" xmlns:xlink="http://www.w3.org/1999/xlink" x="0px" y="0px"
	 viewBox="0 0 477.2 477.2" style="enable-background:new 0 0 477.2 477.2;" xml:space="preserve">
<style type="text/css">
	.st0{fill:#15A3F9;}
</style>
<path class="st0" d="M239.5,32.6c50,0,95.2,20.3,128,53.2c61.3,61.1,70.1,158.9,21.6,229.9c-19.9,29.1-47.9,51.9-80.7,65.4
	L250.8,440c-6.1,6-16.2,6.2-22.4,0.2l-0.2-0.2l-0.1-0.2l-57.4-58.7c-32.8-13.5-60.9-36.3-80.5-65.4C41.4,244.8,50.3,147,111.5,85.8
	C144.4,53,189.5,32.6,239.5,32.6L239.5,32.6z M239.5,122.2L239.5,122.2c25.1,0,47.8,10.2,64.2,26.6c16.5,16.4,26.8,39.2,26.8,64.3
	c0,25-10.2,47.8-26.8,64.2c-16.4,16.5-39.1,26.7-64.2,26.7s-47.8-10.2-64.3-26.7c-16.4-16.4-26.6-39.2-26.6-64.2
	c0-25.1,10.2-47.9,26.6-64.3C191.8,132.4,214.5,122.2,239.5,122.2L239.5,122.2z M290.3,162.3L290.3,162.3
	c-13-13.2-30.9-21.2-50.8-21.2s-37.8,8.1-50.8,21.2c-12.9,12.9-21,30.9-21,50.8c0,19.7,8.1,37.8,21,50.8c13,12.9,30.9,21,50.8,21
	s37.8-8.1,50.8-21c12.9-13,21-31.1,21-50.8C311.4,193.2,303.3,175.3,290.3,162.3L290.3,162.3z M345.1,108.2L345.1,108.2
	C318,81.1,280.8,64.3,239.5,64.3S160.8,81,133.9,108.1C83.3,158.6,76,239.3,116.2,297.8c16.6,24.7,40.5,44.1,68.6,55.1
	c2.3,0.7,4.3,2,6,3.7l48.8,49.8l48.7-49.8c1.6-1.5,3.6-2.7,5.5-3.6c28.2-10.9,52.5-30.2,69.2-55.2
	C403.1,239.3,395.6,158.6,345.1,108.2L345.1,108.2z"/>
</svg>
