<?xml version="1.0" encoding="utf-8"?>
<!-- Generator: Adobe Illustrator 21.0.0, SVG Export Plug-In . SVG Version: 6.00 Build 0)  -->
<svg version="1.1" id="Capa_1" xmlns="http://www.w3.org/2000/svg" xmlns:xlink="http://www.w3.org/1999/xlink" x="0px" y="0px"
	 viewBox="0 0 477.2 477.2" style="enable-background:new 0 0 477.2 477.2;" xml:space="preserve">
<style type="text/css">
	.st0{fill:#15A3F9;}
</style>
<path class="st0" d="M44.7,74.9H45h393.4c9.2,0,16.4,7.5,16.4,16.5v0.2v300c0,9-7.2,16.5-16.4,16.5h-0.3H44.7
	c-9.1,0-16.4-7.6-16.4-16.5v-0.5V91.5C28.3,82.4,35.6,74.9,44.7,74.9L44.7,74.9z M422.1,122.1L422.1,122.1L248.5,295.5
	c-3.7,4-10,4-13.9,0L61,122.1v253.2h361.1V122.1L422.1,122.1z M408.6,107.9L408.6,107.9H74.7l166.8,166.9L408.6,107.9L408.6,107.9z"
	/>
</svg>
