<?xml version="1.0" encoding="utf-8"?>
<!-- Generator: Adobe Illustrator 21.0.0, SVG Export Plug-In . SVG Version: 6.00 Build 0)  -->
<svg version="1.1" id="Capa_1" xmlns="http://www.w3.org/2000/svg" xmlns:xlink="http://www.w3.org/1999/xlink" x="0px" y="0px"
	 viewBox="0 0 477.2 477.2" style="enable-background:new 0 0 477.2 477.2;" xml:space="preserve">
<style type="text/css">
	.st0{fill:#15A3F9;}
</style>
<path class="st0" d="M131.3,45.4l59.8,77.1l0.8,1.1c2.8,3.9,4.9,8,6.1,12.4c1.2,4.9,1.4,10,0.7,15.3c-0.7,5.1-2.2,10-4.9,14.3
	l-0.7,1c-2.4,3.9-5.8,7.3-9.7,10l-0.9,0.9l-29,21.1c-1.9,4.3-4.1,13.5,3.9,24.9c12.7,18.5,27.1,35.6,42.9,51.2v0.1v-0.1
	c15.9,15.9,32.8,30.3,51.2,42.9c11.5,8,20.8,5.8,24.9,4l21.8-29.9h-0.1c3.2-4.3,7-7.8,11.2-10.4c4.3-2.7,9.3-4.3,14.4-5.1h0.6
	c5-0.7,10.1-0.2,14.7,0.9l0.9,0.2c4.4,1.3,8.6,3.5,12.6,6.7l77.1,59.7l1.1,1.2c4,3.3,7.1,7,9.3,11.4l0,0c2.4,5,3.9,10.3,4.1,15.8
	c0.2,5.7-0.6,11.1-2.7,16.1v0.1c-2,5.1-5.2,9.5-9.4,13.4c-4.9,4.8-11.1,9.4-18.4,13.8l-0.9,0.5c-7.1,4.2-15.5,8.2-25.3,11.5
	c-42.3,14-87.6,11.4-131-2.9c-45.9-15.3-89.8-44-126-80.2c-36-36-64.8-80.1-80.1-126C36,175.1,33.5,129.9,47.5,87.6
	c3.3-10.3,7.5-18.8,11.7-26.2l0.2-0.1h-0.2c4.6-7.3,9.3-13.4,14-18.4c3.9-4.3,8.4-7.3,13.5-9.4L88,33c4.8-1.6,9.6-2.4,15-2.2
	c5.8,0.2,10.9,1.7,15.7,4.2l0.9,0.4L131.3,45.4L131.3,45.4z M166.5,141.7L166.5,141.7l-60-77h0.1c-0.6-0.8-1.1-1.4-1.8-1.7l-0.6-0.4
	c-0.8-0.3-1.7-0.6-3-0.6c-0.9-0.1-1.8,0-2.4,0.2l-0.4,0.1c-0.9,0.4-1.5,1.1-2.4,1.9c-3.3,3.4-6.6,7.9-10,13.3
	c-3.3,5.4-6.4,12.1-9,19.6c-11.9,35.7-9.6,74.3,2.9,111.5c13.6,41.2,39.7,80.9,72.6,113.8c33,33.1,72.7,59,113.7,72.6
	c37.4,12.4,76,14.7,111.6,3.1c7.4-2.7,13.5-5.6,19.1-8.8l0.6-0.4c5.5-3.2,9.9-6.5,13.5-10.1c0.7-0.6,1.2-1.3,1.6-2.2l0,0v-0.2
	c0.3-0.7,0.7-1.5,0.4-2.9c0-1.1-0.2-2-0.7-2.9v-0.1c-0.3-0.6-0.7-1-1.3-1.7l-0.7-0.7l-76.9-59.6v-0.1c-0.8-0.6-1.5-0.8-2.2-1.2H331
	c-0.9-0.2-1.8-0.3-2.7-0.2h-0.2c-1.1,0.2-2,0.7-2.7,1.1v-0.2v0.2c-0.8,0.2-1.3,0.9-2,1.8v-0.2v0.2L300,342.3
	c-1.4,1.9-3.1,3.5-5.1,4.7c-0.2,0.2-27.7,19.7-61.2-3.8c-20.3-14-38.8-29.5-55.6-46.3h0.1c-16.7-17-32.5-35.4-46.4-55.4
	c-23.3-33.6-3.8-61-3.8-61.2c1.1-1.8,2.6-3.3,4.2-4.5l31.9-23.3l1-0.9c0.8-0.3,1.2-1,1.7-1.6l0.4-0.4c0.3-0.7,0.6-1.7,0.7-2.7
	c0.2-1,0.1-1.9-0.1-2.8c-0.1-0.6-0.4-1.1-0.8-1.8L166.5,141.7L166.5,141.7z M131.3,45.5L131.3,45.5L131.3,45.5L131.3,45.5
	L131.3,45.5z M131.3,45.4L131.3,45.4L131.3,45.4L131.3,45.4L131.3,45.4z"/>
</svg>
